<svg width="46" height="38" viewBox="0 0 46 38" fill="none" xmlns="http://www.w3.org/2000/svg">
<g id="Logo Abi" clip-path="url(#clip0_9015_7854)">
<g id="Group">
<path id="Vector" fill-rule="evenodd" clip-rule="evenodd" d="M0 37.5979V37.6306H5.21478C5.22574 37.5808 5.25313 37.5324 5.27368 37.4868L6.08734 35.5889C6.21746 35.3013 6.32705 35.0052 6.45992 34.7176C6.68182 34.2363 6.86401 33.7352 7.08591 33.2539C7.2859 32.8211 7.51191 32.2516 7.70779 31.7974C7.87628 31.4087 8.03928 31.0171 8.20777 30.627L8.58446 29.75C8.62144 29.6546 8.67075 29.5563 8.70911 29.4567C8.74609 29.3613 8.79541 29.263 8.83376 29.1634C8.88033 29.0452 9.19127 28.3604 9.20771 28.2835C15.9101 28.2835 22.5892 28.2507 29.2929 28.2507C29.3039 28.302 29.3559 28.3888 29.3806 28.4415C29.397 28.4785 29.4039 28.5027 29.4217 28.5397C29.4395 28.5768 29.4545 28.6067 29.471 28.6408L29.9257 29.609C29.9586 29.6788 29.986 29.7343 30.0203 29.8041C30.0833 29.9351 30.1394 30.0632 30.2011 30.1913L30.66 31.1666C30.6915 31.2307 30.7216 31.2976 30.7531 31.3617H35.8843C35.8706 31.198 35.1433 29.5763 35.0392 29.357C35.0008 29.2773 34.972 29.1933 34.9323 29.1107L34.3241 27.7595C34.1913 27.4733 34.0694 27.1843 33.931 26.8995L33.6529 26.2887C33.4393 25.8459 33.253 25.3875 33.0379 24.9447L32.7598 24.3339C32.7379 24.2883 32.7215 24.257 32.7009 24.2114C32.679 24.1644 32.6681 24.1303 32.6448 24.0847L32.1366 22.987C32.116 22.9428 32.1064 22.9115 32.0845 22.8674L31.9106 22.4958C31.8914 22.4573 31.8777 22.4146 31.8585 22.3762C31.8393 22.3349 31.8202 22.2979 31.7996 22.2537C31.7791 22.2096 31.7681 22.1783 31.7476 22.1341L29.9956 18.3511C29.7216 17.7873 29.4778 17.2107 29.2066 16.6454L28.5286 15.1818C28.2957 14.6977 28.082 14.2065 27.8478 13.7224C27.8259 13.6782 27.8163 13.6469 27.7957 13.6028L26.7739 11.413C26.5205 10.889 26.2903 10.3523 26.0369 9.82688L25.926 9.58484C25.889 9.50796 25.8451 9.42395 25.8109 9.34564L25.5849 8.85444C25.2356 8.12973 24.9082 7.39363 24.5589 6.66892L23.9918 5.46012C23.9261 5.29354 23.8275 5.14119 23.7603 4.97461C23.7014 4.82654 23.5124 4.43927 23.4193 4.24563L23.1905 3.75727C23.1508 3.67327 23.1165 3.60208 23.0754 3.51807L21.7029 0.600729C21.6659 0.523845 21.6221 0.439841 21.5879 0.361533C21.5509 0.274681 21.5153 0.194949 21.4728 0.112369C21.3125 0.112369 21.1536 0.112369 20.9934 0.112369L20.0551 0.0895888C19.9756 0.088165 19.8948 0.0895888 19.8153 0.0895888L19.3359 0.0781985C19.2483 0.0781985 19.1989 0.0668082 19.1072 0.0668082C18.7866 0.068232 18.4921 0.0440275 18.1689 0.0454513C18.0894 0.0454513 18.0305 0.034061 17.9401 0.034061C17.5237 0.034061 17.0278 0.0183993 16.647 0.120912C16.5183 0.155083 16.4059 0.233392 16.3114 0.314548C16.2032 0.408518 16.0909 0.64629 16.032 0.782974C15.9005 1.08624 15.7895 1.39663 15.6635 1.70132C15.5786 1.90919 15.495 2.09713 15.4019 2.29646L14.154 5.1298C14.0143 5.4231 13.8938 5.72637 13.7609 6.02252L13.0363 7.66842C13.013 7.71683 12.9938 7.76381 12.9705 7.81649C12.9568 7.84639 12.9527 7.86348 12.939 7.89195L12.4774 8.93986C12.4637 8.96976 12.4541 8.98685 12.4445 9.0139L11.7117 10.6399C11.6665 10.7353 11.6213 10.8335 11.5788 10.936L11.3117 11.5255C11.287 11.5796 11.2706 11.6209 11.246 11.6735C11.2213 11.7248 11.2035 11.7732 11.1802 11.8216L10.8186 12.6389C10.6926 12.9108 10.5871 13.187 10.457 13.4561C10.4309 13.5102 10.4118 13.5601 10.3871 13.6113L9.99397 14.504C9.89945 14.6991 9.82822 14.9041 9.73371 15.1006L9.47345 15.6972C9.3762 15.8979 9.23374 16.2482 9.14607 16.4518L8.95156 16.8988C8.84746 17.1494 8.72555 17.3929 8.62692 17.6449L8.43378 18.0934C8.29269 18.4465 8.11736 18.7925 7.97764 19.1484L7.7845 19.5984C7.76122 19.6496 7.7393 19.698 7.71875 19.7464C7.69684 19.7977 7.67492 19.8447 7.65437 19.8959C7.63657 19.9415 7.61328 19.9956 7.58999 20.0454C7.4763 20.2932 7.38041 20.548 7.26672 20.7929C7.21878 20.894 7.18727 20.9922 7.13796 21.0933C7.09002 21.193 7.05578 21.2969 7.0092 21.3938L6.62018 22.2907C6.57635 22.3961 6.53663 22.4872 6.49142 22.5897C6.44485 22.6922 6.40924 22.7905 6.36266 22.8902C6.23527 23.1621 6.12843 23.4454 6.00515 23.7216C5.99282 23.7501 5.98323 23.7644 5.9709 23.7943L5.77776 24.2442C5.65996 24.546 5.50928 24.8393 5.38874 25.1412L5.05999 25.8943C4.91343 26.2346 4.69015 26.7686 4.53811 27.0861C4.44496 27.2797 4.37099 27.4876 4.27785 27.6826C4.11347 28.0258 3.97101 28.3831 3.81486 28.7305C3.80253 28.7576 3.79294 28.7747 3.78061 28.8032C3.6587 29.0751 3.54912 29.3527 3.41899 29.6204L2.28207 32.1348C2.25741 32.1889 2.24234 32.2302 2.21632 32.2829L1.87524 33.0233C1.84921 33.0759 1.83415 33.1172 1.80949 33.1713L1.40677 34.0527C1.24514 34.3901 1.09583 34.7745 0.941044 35.0963C0.801326 35.3882 0.680784 35.7 0.554764 35.9961C0.405457 36.3507 0.265739 36.7151 0.135609 37.0782C0.117802 37.128 0.0986247 37.1793 0.0808175 37.2391C0.0520519 37.3359 0 37.484 0 37.5979ZM18.9496 5.64237C18.9798 5.65091 18.9839 5.66372 18.9976 5.68935C19.3524 6.33291 19.6647 7.04195 19.9852 7.70829L21.1742 10.2668C21.4002 10.7367 21.6015 11.2208 21.8276 11.6906L22.1577 12.4096C22.3166 12.7371 22.4508 13.076 22.6097 13.4034L22.8083 13.8363C22.8316 13.8847 22.8494 13.926 22.8713 13.9772L24.0411 16.5557C24.0603 16.607 24.0863 16.6483 24.1083 16.7024L25.0096 18.7142C25.1945 19.1456 25.4082 19.5685 25.5863 20.0013C25.6095 20.0582 25.6301 20.0953 25.652 20.1494C25.7438 20.3814 25.8684 20.6349 25.9698 20.8712L26.2273 21.4493C26.3424 21.6856 26.4396 21.9319 26.5437 22.1726L27.0437 23.3429C27.093 23.4582 27.2656 23.8441 27.2738 23.9495C26.5999 23.9495 25.9246 23.9495 25.2507 23.9495C24.5699 23.9495 23.9206 23.9381 23.2384 23.9381C22.5645 23.9381 21.8892 23.9381 21.2153 23.9381C20.5317 23.9381 19.8784 23.9267 19.1921 23.9267C18.5182 23.9267 17.8429 23.9267 17.1689 23.9267C16.4854 23.9267 15.832 23.9153 15.1457 23.9153C14.4718 23.9153 13.7965 23.9153 13.1226 23.9153C12.439 23.9153 11.7857 23.9039 11.0994 23.9039C11.1227 23.8014 11.4692 23.0354 11.524 22.903L11.7076 22.4758C11.9185 22.006 12.1158 21.5262 12.3199 21.052L13.0596 19.3392C13.2239 18.9591 13.3856 18.5789 13.5499 18.2016C13.591 18.1062 13.6266 18.0137 13.6718 17.9169L14.0431 17.0569C14.1239 16.8618 14.2061 16.6824 14.2869 16.4874L15.5156 13.6355C15.669 13.2511 15.8512 12.8823 16.006 12.4979C16.0293 12.441 16.0443 12.4125 16.0662 12.3555C16.0854 12.3071 16.106 12.2616 16.1279 12.2132C16.1731 12.1163 16.2087 12.0224 16.2498 11.9284L17.3566 9.36131C17.4881 9.02529 17.647 8.69924 17.7853 8.36608L18.2784 7.21993C18.451 6.78852 18.6565 6.37135 18.8291 5.93852C18.8592 5.86305 18.9428 5.71783 18.9496 5.64237Z" fill="#222222"/>
<path id="Vector_2" fill-rule="evenodd" clip-rule="evenodd" d="M23.2928 0.108208C23.2955 0.145227 23.3257 0.203602 23.3421 0.242044L23.9229 1.59037C23.9435 1.63451 23.9654 1.68577 23.9804 1.72563C24.1243 2.09155 24.2941 2.4418 24.4434 2.80487C24.5201 2.98996 24.5996 3.15796 24.6749 3.3459L25.1393 4.42371C25.3283 4.42371 25.5132 4.45788 25.7023 4.45646C25.7666 4.45646 25.7872 4.465 25.8379 4.46785C25.8844 4.4707 25.9365 4.46643 25.9844 4.46785C26.0433 4.46927 26.057 4.47924 26.1187 4.47924C26.1707 4.47924 26.2241 4.47782 26.2762 4.47782C26.3392 4.47782 26.3515 4.48921 26.4104 4.48921L26.7036 4.48778C26.7584 4.48921 26.7817 4.49917 26.8488 4.49917C27.0173 4.49775 27.2953 4.48209 27.4528 4.5006C27.6761 4.52623 28.913 4.51056 29.2377 4.51056L31.5636 4.57606C31.6526 4.57464 31.7677 4.58745 31.8471 4.59599L32.3992 4.64013C32.4923 4.64582 32.5813 4.65579 32.6745 4.66861L33.2114 4.73837C33.7155 4.81098 34.2086 4.91919 34.6949 5.06015C35.1278 5.18686 35.5908 5.35914 35.9825 5.58553C36.1113 5.66099 36.2387 5.72506 36.3619 5.80906L36.8838 6.19918C37.1098 6.38142 37.4482 6.74307 37.6153 6.99935C37.6372 7.0321 37.655 7.05488 37.6769 7.0862L37.855 7.36811C38.3454 8.21242 38.6454 9.28168 38.6454 10.2855C38.6454 10.6727 38.6317 11.013 38.5769 11.3846C38.5043 11.873 38.3933 12.3186 38.2139 12.7628C38.1701 12.8696 38.129 12.9579 38.0851 13.0633C38.0043 13.2612 37.8906 13.4463 37.781 13.6257C37.7263 13.7168 37.6674 13.8008 37.6043 13.8862L37.4181 14.1268C37.3824 14.1752 37.3509 14.1966 37.3181 14.2393C37.2811 14.2877 37.255 14.3134 37.2126 14.3575C37.0715 14.5056 36.9099 14.628 36.7647 14.769C36.6263 14.9028 36.44 15.0395 36.288 15.1505C36.2058 15.2103 36.125 15.2659 36.04 15.3257C35.1826 15.9208 34.173 16.1856 33.1498 16.2782L32.769 16.3166C32.5416 16.3508 32.3046 16.3479 32.0841 16.3736C32.0499 16.3778 32.0156 16.3736 31.9814 16.3764C31.9334 16.3807 31.8416 16.385 31.7882 16.3935L30.9896 16.4519C30.917 16.4576 30.8513 16.4633 30.7814 16.4633C30.7855 16.6783 31.002 17.1282 31.091 17.3446C31.2828 17.8073 31.5074 18.2544 31.7238 18.7043L32.3731 20.0455C32.4224 20.148 32.7306 20.7717 32.7526 20.8656C32.8772 20.8656 33.021 20.8884 33.1484 20.887C33.347 20.8856 33.7635 20.9326 33.9621 20.9297L34.3621 20.9582C34.5141 20.9824 34.7593 20.9867 34.936 21.0123C35.2456 21.0578 35.5551 21.0949 35.8551 21.1732C36.7523 21.4081 37.4345 21.7626 38.1934 22.288C38.5317 22.5215 38.8385 22.7892 39.1262 23.0853C39.2317 23.1935 39.3234 23.3131 39.4179 23.4327C39.7933 23.9068 40.0343 24.465 40.2097 25.0487C40.2439 25.1626 40.2658 25.278 40.296 25.4032C40.4412 25.9955 40.4686 26.7203 40.4686 27.3368C40.4686 28.2437 40.2631 29.1663 39.8563 29.9523L39.7563 30.1402C39.6385 30.3466 39.5001 30.5374 39.359 30.7239C39.3166 30.7795 39.2755 30.8208 39.2344 30.8763C39.1947 30.929 39.144 30.9703 39.1015 31.0201C39.0933 31.0301 39.096 31.0272 39.0865 31.0372L38.8974 31.2308C38.8673 31.2607 38.8495 31.2693 38.8193 31.3006C38.7303 31.3931 38.6194 31.4743 38.5194 31.5526C38.3646 31.6722 38.1961 31.7932 38.029 31.8986C37.8002 32.0424 37.555 32.1748 37.3098 32.2887C36.8551 32.4994 36.3798 32.676 35.8935 32.8013C35.4483 32.9152 34.9935 33.0234 34.5333 33.0903C34.1196 33.1501 33.71 33.1871 33.2936 33.2213C33.1251 33.2355 32.943 33.2327 32.7717 33.2526C32.7306 33.2569 32.68 33.2526 32.6375 33.254C32.58 33.254 32.5717 33.2654 32.5128 33.2654C32.469 33.2654 32.4197 33.2626 32.3772 33.2654C32.3293 33.2683 32.3129 33.2768 32.2526 33.2768L31.8458 33.2868C31.7855 33.2868 31.7745 33.2967 31.7211 33.2982C31.6375 33.301 31.5307 33.2896 31.4513 33.2996C31.2937 33.3181 30.8212 33.3209 30.6472 33.3195C30.554 33.3195 30.4883 33.3309 30.3869 33.3309H29.9801C29.9253 33.3323 29.9089 33.3423 29.8445 33.3423C29.6637 33.3409 29.4829 33.3423 29.3021 33.3423C29.113 33.3423 28.9541 33.3537 28.7596 33.3537C28.398 33.3537 28.0364 33.3537 27.6748 33.3537C27.3008 33.3537 26.9611 33.3651 26.5899 33.3651C26.2228 33.3651 25.879 33.3537 25.505 33.3537C25.1406 33.3537 24.7749 33.3537 24.4106 33.3537L22.2422 33.3323C22.0394 33.3323 21.2888 33.3494 21.1518 33.3281C20.8162 33.2754 20.4039 33.3679 20.0683 33.3152C19.8081 33.274 19.2917 33.3366 18.9862 33.301C18.667 33.264 18.2068 33.3423 17.8986 33.2925C17.7671 33.2711 17.0041 33.2882 16.8082 33.2882C16.6219 33.2882 16.4672 33.2768 16.2768 33.2768C16.0918 33.2768 15.9083 33.2768 15.7234 33.2768C14.2577 33.2768 12.8674 33.2113 11.4058 33.2113L10.6346 33.2227C10.5908 33.2227 10.5428 33.2213 10.499 33.2227L10.2483 33.2341C10.188 33.2341 10.1716 33.2426 10.1237 33.2455C10.0798 33.2483 10.0319 33.2426 9.98806 33.2455C9.93875 33.2483 9.92368 33.2569 9.86341 33.2569C9.79903 33.2569 9.6826 33.264 9.61959 33.274C9.53603 33.2868 9.45247 33.2825 9.36891 33.2953C9.29358 33.3067 9.12646 33.3096 9.07715 33.3281C9.03606 33.3423 9.06208 33.3224 9.04017 33.3651C8.96072 33.5132 8.82922 33.8378 8.74155 34.02L8.31418 34.9626C8.16487 35.2715 8.03885 35.589 7.88954 35.898L7.63202 36.4647C7.5786 36.5914 7.51422 36.7067 7.4608 36.8391C7.38409 37.0313 7.2841 37.2107 7.20465 37.3973C7.17726 37.4613 7.13616 37.5225 7.12109 37.5923C7.24437 37.5923 7.48546 37.6236 7.67449 37.6251C7.7375 37.6251 7.74983 37.6364 7.80873 37.6364C7.85667 37.6364 7.90872 37.6336 7.95529 37.6364L8.24706 37.6464C8.30596 37.6478 8.31966 37.6578 8.3813 37.6578C8.91141 37.6592 9.44151 37.6906 9.96614 37.6906C10.1648 37.6906 10.362 37.6906 10.5606 37.6906C10.6688 37.6906 10.7442 37.7019 10.8428 37.7019H14.8577C15.0289 37.7019 15.1645 37.6906 15.3371 37.6906C15.6645 37.6906 15.9905 37.6906 16.3178 37.6906C16.6507 37.6906 16.9521 37.6792 17.2877 37.6792C17.9465 37.6792 18.5753 37.6678 19.2382 37.6678C19.3985 37.6678 19.5464 37.6564 19.7177 37.6564C20.8505 37.6564 21.9874 37.635 23.1175 37.635C23.2914 37.635 23.4312 37.6464 23.5969 37.6464C23.7599 37.6464 23.9243 37.6464 24.0873 37.6464C24.1791 37.6464 24.2284 37.6578 24.316 37.6578C24.7215 37.655 25.1146 37.6806 25.5256 37.6792C25.6173 37.6792 25.6708 37.6906 25.7543 37.6906C25.8379 37.6906 25.9214 37.6906 26.005 37.6906C26.0885 37.6906 26.142 37.7019 26.2337 37.7019C26.3159 37.7019 26.4022 37.6991 26.4844 37.7019L26.7132 37.7133C26.7953 37.7133 26.8816 37.7105 26.9638 37.7133L27.1926 37.7247C27.2761 37.7247 27.3597 37.7247 27.4433 37.7247C27.5309 37.7247 27.5802 37.7361 27.672 37.7361H30.9883C31.0581 37.7361 31.0965 37.7247 31.1759 37.7247C31.2417 37.7247 31.3088 37.7247 31.3745 37.7247C31.4444 37.7247 31.4828 37.7133 31.5622 37.7133C31.7006 37.7133 31.7992 37.7034 31.9375 37.7034L32.595 37.6706C32.6443 37.6692 32.643 37.6621 32.6882 37.6592C32.7183 37.6578 32.7512 37.6607 32.7827 37.6592C32.8799 37.6564 32.9649 37.6379 33.0635 37.6364C33.2786 37.635 33.5744 37.5937 33.7936 37.5823C34.021 37.571 34.2771 37.5411 34.5059 37.5097C34.799 37.4699 35.0949 37.4442 35.3825 37.4015L35.9017 37.3232C36.4592 37.2449 36.9962 37.121 37.5413 37C37.6509 36.9758 37.7564 36.9488 37.8619 36.9217C38.9919 36.6284 39.9987 36.2611 41.0288 35.7257L41.2891 35.5833C41.6822 35.3385 41.9877 35.1647 42.3643 34.87L43.2095 34.1225C43.2931 34.0471 43.3314 33.9944 43.4081 33.9161C43.4437 33.8791 43.4725 33.8506 43.5081 33.8136L43.6889 33.6C43.8821 33.3423 44.004 33.2113 44.204 32.8995L44.5724 32.2745C44.5985 32.226 44.6135 32.1848 44.6382 32.1378C44.8848 31.6793 45.0574 31.1796 45.2067 30.6798L45.3286 30.1986C45.3423 30.1374 45.3546 30.0975 45.3669 30.032L45.4875 29.3443C45.5066 29.229 45.5176 29.1122 45.5313 28.9884C45.5436 28.8744 45.5532 28.7278 45.5683 28.6153C45.5875 28.4672 45.6025 27.9732 45.6025 27.8337V27.8265V27.818V27.1403C45.5998 27.0392 45.5957 26.9509 45.5888 26.8982C45.5697 26.7573 45.5751 26.585 45.5546 26.4355C45.5436 26.3572 45.5436 26.286 45.534 26.2077C45.5231 26.128 45.5162 26.0582 45.508 25.9842C45.3957 24.9348 45.108 23.81 44.6629 22.8846L44.4985 22.5571C44.4355 22.4503 44.382 22.3521 44.3177 22.2467C44.2245 22.0958 44.119 21.9563 44.0122 21.8153L43.7328 21.4878C43.7095 21.4636 43.693 21.448 43.6698 21.4223L43.43 21.1831C43.1807 20.9425 42.9109 20.7247 42.6479 20.4997C42.2767 20.1836 41.8014 19.8448 41.3987 19.5643L40.6617 19.0845C40.2028 18.7997 39.733 18.5406 39.244 18.3142C39.196 18.2914 39.1207 18.253 39.0741 18.2416C39.1892 18.0622 39.3508 17.9184 39.5097 17.7846C39.7796 17.5553 40.0617 17.3346 40.3467 17.1253C40.4905 17.02 40.7014 16.8477 40.8288 16.7167L41.2822 16.2782C41.4411 16.113 41.5959 15.9351 41.7411 15.7571L42.0315 15.3755C42.352 14.9341 42.6424 14.4643 42.8739 13.9645C42.8917 13.9261 42.8999 13.8976 42.9191 13.8592C42.9383 13.8193 42.9534 13.7922 42.9698 13.7495C43.0849 13.4577 43.2068 13.1757 43.304 12.8725C43.7026 11.6309 43.8862 10.1374 43.6739 8.56124C43.6259 8.2053 43.5643 7.86786 43.4848 7.54324C43.4465 7.3852 43.4068 7.21719 43.3588 7.06769C43.2013 6.58218 43.1547 6.44692 42.9588 5.95429C42.8739 5.74072 42.7643 5.54424 42.6643 5.33921C42.5369 5.07723 42.3726 4.82095 42.2123 4.5846C42.0918 4.40663 41.9616 4.24004 41.8329 4.06919L41.626 3.82857C41.5959 3.79725 41.5877 3.77731 41.5589 3.74741L41.0987 3.30177C41.0672 3.27614 41.0521 3.25478 41.022 3.23058C40.8275 3.07539 40.648 2.90311 40.4439 2.75788C40.411 2.7351 40.3919 2.71659 40.3604 2.69239C40.3275 2.66818 40.3056 2.65537 40.2741 2.63116C40.2152 2.58418 40.1535 2.54574 40.0932 2.50445C39.8207 2.31651 39.481 2.08728 39.1823 1.93351C39.1125 1.89649 39.0618 1.86516 38.9906 1.82815C38.9221 1.79255 38.8645 1.76265 38.7961 1.72706L38.4933 1.57471C38.0509 1.34406 37.355 1.07781 36.9003 0.932582C36.4428 0.787356 35.988 0.653519 35.5209 0.545311C34.8922 0.400085 33.8758 0.232078 33.2101 0.193635C33.1676 0.190788 33.1279 0.186516 33.0745 0.182245L31.1335 0.0640705C31.0705 0.0640705 31.0581 0.0526802 30.9992 0.0526802C30.9513 0.0526802 30.9006 0.054104 30.8527 0.054104L30.4253 0.0327472C30.3335 0.0242044 30.2267 0.0370185 30.1335 0.0327472L29.5596 0.0113903C29.1678 0.0128141 28.8048 0 28.4103 0H28.3912H27.0981H27.083C26.7584 0 26.4556 0.0113903 26.1392 0.0113903C25.8146 0.0113903 25.4982 0.0327472 25.1804 0.0327472L24.9516 0.0441375C24.8708 0.0484088 24.7818 0.0398661 24.7009 0.0441375L24.4708 0.0555278C24.238 0.054104 23.9928 0.0896987 23.7613 0.0882749C23.6051 0.0854274 23.4558 0.108208 23.2928 0.108208Z" fill="#222222"/>
</g>
</g>
<defs>
<clipPath id="clip0_9015_7854">
<rect width="45.6" height="38" fill="white"/>
</clipPath>
</defs>
</svg>
